Coordinates
version=1
nRows=8
nColumns=40
inDegrees=yes

Units are S.I. units (second, meters, Newtons, ...)
If the header above contains a line with 'inDegrees', this indicates whether rotational values are in degrees (yes) or radians (no).

endheader
time	pelvis_tilt	pelvis_list	pelvis_rotation	pelvis_tx	pelvis_ty	pelvis_tz	hip_flexion_r	hip_adduction_r	hip_rotation_r	knee_angle_r	knee_angle_r_beta	ankle_angle_r	subtalar_angle_r	mtp_angle_r	hip_flexion_l	hip_adduction_l	hip_rotation_l	knee_angle_l	knee_angle_l_beta	ankle_angle_l	subtalar_angle_l	mtp_angle_l	lumbar_extension	lumbar_bending	lumbar_rotation	arm_flex_r	arm_add_r	arm_rot_r	elbow_flex_r	pro_sup_r	wrist_flex_r	wrist_dev_r	arm_flex_l	arm_add_l	arm_rot_l	elbow_flex_l	pro_sup_l	wrist_flex_l	wrist_dev_l
      1.75000000	     -2.14498576	      0.73889899	      1.59804843	     -0.31943561	      0.97613239	     -0.80447681	     10.15701354	      3.98024201	    -10.22416361	     14.88934034	      0.25986801	     -8.89937868	      0.00000000	      0.00000000	     12.24993700	     -8.76272998	      2.70177171	     88.49293165	      1.54449302	    -10.80665333	      0.00000000	      0.00000000	     -6.11079297	      2.75314600	     -1.79308210	     73.97760146	    -19.70553470	     38.31788356	     66.02954083	     87.01827706	      0.00000000	      0.00000000	     77.38624351	     -8.36089313	     41.61877358	     58.08463135	     81.36050372	      0.00000000	      0.00000000
      1.75500000	     -2.22706340	      0.73570630	      1.68412186	     -0.31961248	      0.97599654	     -0.80435320	     10.28298514	      3.98050487	    -10.32860432	     14.94787393	      0.26088962	     -8.77396855	      0.00000000	      0.00000000	     12.29889776	     -8.76479517	      2.77892564	     88.69588420	      1.54803521	    -10.87748189	      0.00000000	      0.00000000	     -6.05730105	      2.73097658	     -1.78188807	     73.97425060	    -19.83849568	     38.33311088	     66.15789641	     86.86027003	      0.00000000	      0.00000000	     77.57071623	     -8.26751926	     41.75251880	     57.86078802	     83.48879099	      0.00000000	      0.00000000
      1.76000000	     -2.25939821	      0.73545174	      1.74963143	     -0.31975031	      0.97595861	     -0.80416750	     10.26541424	      4.01129729	    -10.26967794	     14.82408582	      0.25872911	     -8.79630579	      0.00000000	      0.00000000	     12.27576561	     -8.83619479	      2.77815263	     88.87445277	      1.55115182	    -10.99531594	      0.00000000	      0.00000000	     -6.05919119	      2.74006898	     -1.90998100	     74.02474510	    -19.66866814	     38.26841547	     66.03429746	     86.94364061	      0.00000000	      0.00000000	     77.66484674	     -8.38954259	     41.84583097	     57.93311030	     82.60527573	      0.00000000	      0.00000000
      1.76500000	     -2.31635297	      0.76132951	      1.79642150	     -0.31993505	      0.97584525	     -0.80402136	     10.36909547	      3.98835479	    -10.28702465	     14.89717509	      0.26000475	     -8.71582657	      0.00000000	      0.00000000	     12.27269529	     -8.82817273	      2.80248644	     89.03079838	      1.55388057	    -11.12791110	      0.00000000	      0.00000000	     -6.03445980	      2.68347606	     -1.87355222	     74.05726535	    -19.75558992	     38.25602901	     66.04177504	     86.83068887	      0.00000000	      0.00000000	     77.82245244	     -8.28770318	     41.87486941	     57.75249487	     83.78456392	      0.00000000	      0.00000000
      1.77000000	     -2.34245019	      0.78593043	      1.85934428	     -0.32008797	      0.97578735	     -0.80387259	     10.39028893	      3.98083896	    -10.29343909	     14.86585019	      0.25945803	     -8.69477904	      0.00000000	      0.00000000	     12.24578714	     -8.82413806	      2.82733620	     89.17781002	      1.55644640	    -11.18502458	      0.00000000	      0.00000000	     -6.04263733	      2.66699050	     -1.99353118	     74.11528954	    -19.59176152	     38.16785869	     65.91308880	     86.94047232	      0.00000000	      0.00000000	     77.93426124	     -8.44784930	     42.02404851	     57.85009870	     82.88232785	      0.00000000	      0.00000000
      1.77500000	     -2.43383688	      0.80398301	      1.92566252	     -0.32027835	      0.97560775	     -0.80372170	     10.56692425	      3.94730165	    -10.41014102	     15.00627042	      0.26190883	     -8.65206057	      0.00000000	      0.00000000	     12.32660555	     -8.82134094	      2.87185259	     89.33406956	      1.55917365	    -11.35200488	      0.00000000	      0.00000000	     -5.98208187	      2.62836657	     -2.04903228	     74.12533194	    -19.66295655	     38.13940607	     66.00571295	     87.01359448	      0.00000000	      0.00000000	     78.05923526	     -8.52874507	     42.36294788	     58.00904063	     80.38310312	      0.00000000	      0.00000000
      1.78000000	     -2.44121854	      0.82678716	      1.95217800	     -0.32047962	      0.97555043	     -0.80350366	     10.57331870	      3.95021403	    -10.31700673	     14.99063985	      0.26163602	     -8.57795433	      0.00000000	      0.00000000	     12.28599206	     -8.84831411	      2.85283728	     89.45067912	      1.56120887	    -11.40880083	      0.00000000	      0.00000000	     -6.00381372	      2.56797757	     -2.04562836	     74.13081587	    -19.64707230	     38.03426865	     65.93947521	     86.74602590	      0.00000000	      0.00000000	     78.21735772	     -8.42043047	     42.19862767	     57.67353546	     83.92245395	      0.00000000	      0.00000000
      1.78500000	     -2.51202616	      0.86340389	      2.01628258	     -0.32073680	      0.97537694	     -0.80332962	     10.71703585	      3.90563761	    -10.38139895	     15.09604165	      0.26347563	     -8.50558331	      0.00000000	      0.00000000	     12.33174522	     -8.83765718	      2.87842021	     89.54691497	      1.56288850	    -11.53118949	      0.00000000	      0.00000000	     -5.97626024	      2.51548486	     -2.10651859	     74.23915239	    -19.53667358	     38.08361874	     65.81814078	     86.85709457	      0.00000000	      0.00000000	     78.34064326	     -8.50352522	     42.34801923	     57.71910356	     83.53977744	      0.00000000	      0.00000000
